<svg width="22" height="22" viewBox="0 0 22 22" fill="none" xmlns="http://www.w3.org/2000/svg">
<g id="x">
<path id="Union" fill-rule="evenodd" clip-rule="evenodd" d="M18.9327 6.29304C19.3232 5.90252 19.3232 5.26935 18.9327 4.87883C18.5422 4.48831 17.909 4.48831 17.5185 4.87883L12.2256 10.1717L6.93269 4.87883C6.54217 4.48831 5.909 4.48831 5.51848 4.87883C5.12795 5.26935 5.12795 5.90252 5.51848 6.29304L10.8114 11.5859L5.51848 16.8788C5.12795 17.2694 5.12795 17.9025 5.51848 18.293C5.909 18.6836 6.54217 18.6836 6.93269 18.293L12.2256 13.0002L17.5185 18.293C17.909 18.6836 18.5422 18.6836 18.9327 18.293C19.3232 17.9025 19.3232 17.2694 18.9327 16.8788L13.6398 11.5859L18.9327 6.29304Z" fill="black"/>
</g>
</svg>
